<svg xmlns="http://www.w3.org/2000/svg" aria-hidden="true" style="position:absolute;width:0;height:0;overflow:hidden">
  <defs>
    <symbol id="icon-arrow-down" viewBox="0 0 32 32">
      <path fill="none" stroke="#fff" stroke-linecap="round" stroke-linejoin="round" stroke-width="3.2" d="m8 12 8 8 8-8" style="stroke:var(--color1, #fff)"/>
    </symbol>
    <symbol id="icon-chevron-left" viewBox="0 0 32 32">
      <path stroke-linejoin="round" stroke-linecap="round" stroke-miterlimit="4" stroke-width="3.5556" d="M20 24l-8-8 8-8"></path>
    </symbol>
    <symbol id="icon-arrow-left" viewBox="0 0 32 32">
      <path stroke-linecap="round" stroke-linejoin="round" stroke-width="3.556" d="m12 24 8-8-8-8"/>
    </symbol>
    <symbol id="icon-chevron-right" viewBox="0 0 32 32">
      <path stroke-linejoin="round" stroke-linecap="round" stroke-miterlimit="4" stroke-width="3.5556" d="M12 24l8-8-8-8"></path>
    </symbol>
    <symbol id="icon-arrow-right" viewBox="0 0 32 32">
      <path stroke-linecap="round" stroke-linejoin="round" stroke-width="3.556" d="m12 24 8-8-8-8"/>
    </symbol>
    <symbol id="icon-pie-chart" viewBox="0 0 32 32">
    <path fill="none" stroke="#323f47" style="stroke: var(--color2, #323f47)" stroke-linejoin="round" stroke-linecap="round" stroke-miterlimit="4" stroke-width="2.6667" d="M22.933 18.667c0.369 0 0.555 0 0.704 0.083 0.129 0.075 0.231 0.186 0.292 0.32l0.002 0.004c0.067 0.156 0.049 0.324 0.016 0.659-0.56 5.414-5.098 9.6-10.613 9.6-5.891 0-10.667-4.776-10.667-10.667 0-5.516 4.187-10.054 9.555-10.61l0.046-0.004c0.335-0.032 0.501-0.049 0.659 0.017 0.138 0.063 0.249 0.164 0.322 0.29l0.002 0.003c0.083 0.149 0.083 0.335 0.083 0.704v8.533c0 0.373 0 0.56 0.073 0.703 0.065 0.126 0.165 0.226 0.287 0.289l0.004 0.002c0.143 0.073 0.329 0.073 0.703 0.073h8.533z"></path>
      <path fill="none" stroke="#9be1a0" style="stroke: var(--color1, #9be1a0)" stroke-linejoin="round" stroke-linecap="round" stroke-miterlimit="4" stroke-width="2.6667" d="M18.667 3.733c0-0.369 0-0.555 0.083-0.704 0.075-0.129 0.186-0.231 0.32-0.292l0.004-0.002c0.156-0.067 0.324-0.049 0.659-0.016 5.049 0.522 9.026 4.498 9.544 9.501l0.004 0.046c0.033 0.335 0.051 0.501-0.016 0.659-0.063 0.138-0.164 0.249-0.29 0.322l-0.003 0.002c-0.151 0.083-0.335 0.083-0.704 0.083h-8.533c-0.373 0-0.56 0-0.703-0.073-0.126-0.065-0.226-0.165-0.289-0.287l-0.002-0.004c-0.073-0.141-0.073-0.328-0.073-0.701v-8.533z"></path>
    </symbol>
    <symbol id="icon-edit" viewBox="0 0 32 32">
      <path stroke-linecap="round" stroke-linejoin="round" stroke-width="3.6" d="M22.666 4a3.766 3.766 0 0 1 4.109-.817 3.781 3.781 0 0 1 2.041 2.04 3.764 3.764 0 0 1 0 2.886 3.756 3.756 0 0 1-.817 1.223l-18 18-7.333 2 2-7.333 18-18z"/>
    </symbol>
    <symbol id="icon-eye" viewBox="0 0 32 32">
      <path stroke-linecap="round" stroke-linejoin="round" stroke-width="2.88" d="M1.333 16S6.666 5.333 16 5.333 30.667 16 30.667 16 25.334 26.667 16 26.667 1.333 16 1.333 16z"/>
      <path stroke-linecap="round" stroke-linejoin="round" stroke-width="2.88" d="M16 20a4 4 0 1 0 0-8 4 4 0 0 0 0 8z"/>
    </symbol>
    <symbol id="icon-eye-off" viewBox="0 0 32 32">
      <path stroke-linecap="round" stroke-linejoin="round" stroke-width="2.88" d="M23.92 23.92A13.43 13.43 0 0 1 16 26.667C6.667 26.667 1.333 16 1.333 16A24.605 24.605 0 0 1 8.08 8.08m5.12-2.427a12.161 12.161 0 0 1 2.8-.32C25.333 5.333 30.667 16 30.667 16a24.646 24.646 0 0 1-2.88 4.253m-8.961-1.426a4.01 4.01 0 0 1-2.855 1.273 3.978 3.978 0 0 1-1.569-.291 3.984 3.984 0 0 1-2.21-2.21 3.995 3.995 0 0 1 .983-4.424M1.333 1.333l29.333 29.333"/>
    </symbol>
    <symbol id="icon-log-out" viewBox="0 0 32 32">
      <path stroke-linecap="round" stroke-linejoin="round" stroke-width="3" d="M12 28H6.667A2.668 2.668 0 0 1 4 25.333V6.666a2.668 2.668 0 0 1 2.667-2.667H12M21.334 22.667 28.001 16l-6.667-6.667M28 16H12"/>
    </symbol>
    <symbol id="icon-glass" viewBox="0 0 31 32">
      <path fill="#9be1a0" d="M26.955 5.226c-.095-.321-.254-.616-.468-.868s-.477-.452-.772-.589a2.087 2.087 0 0 0-.937-.21H6.562a1.83 1.83 0 0 0-.937.197c-.301.139-.57.345-.785.604a2.36 2.36 0 0 0-.468.866 2.392 2.392 0 0 0-.089.984l2.076 18.377a5.202 5.202 0 0 0 1.633 3.255 4.78 4.78 0 0 0 3.253 1.313h8.861a4.804 4.804 0 0 0 3.266-1.313 5.316 5.316 0 0 0 1.62-3.255l1.127-10.331v-.158l.873-7.876a2.724 2.724 0 0 0-.038-.998zM14.17 25.375h-1.266a3.573 3.573 0 0 1-2.215-.945 3.744 3.744 0 0 1-1.139-2.192l-.304-2.258c-.039-.344.053-.691.258-.965s.504-.455.835-.503.667.04.936.246.45.512.503.854l.304 2.232c.034.244.151.467.329.63a1 1 0 0 0 .646.276h1.266c.336 0 .658.138.895.384s.371.58.371.928-.133.682-.371.928a1.242 1.242 0 0 1-.895.384h-.152zm10.127-12.116c-2.671.538-4.949.643-7.367-1.313-3-2.455-6.633-1.667-10.127-.381L6.17 5.999a.41.41 0 0 1 0-.171.337.337 0 0 1 .089-.144.257.257 0 0 1 .127-.105.262.262 0 0 1 .152 0h18.38a.53.53 0 0 1 .127.105.314.314 0 0 1 .076.144.304.304 0 0 1 0 .184l-.823 7.246z" style="fill:var(--color2, #9be1a0)"/>
    </symbol>
    <symbol id="icon-pie-chart" viewBox="0 0 32 32">
      <path fill="none" stroke="#323f47" stroke-linecap="round" stroke-linejoin="round" stroke-width="2.667" d="M22.933 18.667c.369 0 .554 0 .704.082a.713.713 0 0 1 .293.324c.067.157.05.324.016.659a10.665 10.665 0 0 1-12.694 9.397c-2.069-.412-3.97-1.428-5.462-2.919s-2.508-3.392-2.919-5.461a10.666 10.666 0 0 1 9.397-12.694c.334-.034.502-.05.659.016.13.055.257.17.324.293.082.15.082.334.082.704v8.533c0 .373 0 .56.073.703a.67.67 0 0 0 .291.291c.143.073.329.073.703.073h8.533z" style="stroke:var(--color3, #323f47)"/>
      <path fill="none" stroke="#9be1a0" stroke-linecap="round" stroke-linejoin="round" stroke-width="2.667" d="M18.667 3.733c0-.369 0-.554.082-.704a.713.713 0 0 1 .324-.293c.157-.067.324-.05.659-.016a10.67 10.67 0 0 1 9.549 9.549c.033.334.05.502-.016.659a.704.704 0 0 1-.293.324c-.15.082-.334.082-.704.082h-8.533c-.373 0-.56 0-.703-.073a.67.67 0 0 1-.291-.291c-.073-.143-.073-.329-.073-.703V3.734z" style="stroke:var(--color2, #9be1a0)"/>
    </symbol>
    <symbol id="icon-settings" viewBox="0 0 32 32">
      <path stroke-linecap="round" stroke-linejoin="round" stroke-width="3" d="M16 20a4 4 0 1 0 0-8 4 4 0 0 0 0 8z"/>
      <path stroke-linecap="round" stroke-linejoin="round" stroke-width="3" d="M25.867 20a2.205 2.205 0 0 0 .44 2.427l.08.08a2.672 2.672 0 0 1 .782 1.886 2.672 2.672 0 0 1-1.648 2.465 2.672 2.672 0 0 1-2.907-.579l-.08-.08a2.197 2.197 0 0 0-2.427-.44 2.2 2.2 0 0 0-1.334 2.013v.227a2.668 2.668 0 0 1-5.334 0v-.12a2.196 2.196 0 0 0-1.44-2.013 2.205 2.205 0 0 0-2.427.44l-.08.08a2.672 2.672 0 0 1-1.886.782 2.672 2.672 0 0 1-2.465-1.648 2.672 2.672 0 0 1 .579-2.907l.08-.08a2.197 2.197 0 0 0 .44-2.427 2.2 2.2 0 0 0-2.013-1.334H4a2.668 2.668 0 0 1 0-5.334h.12a2.196 2.196 0 0 0 2.013-1.44 2.2 2.2 0 0 0-.44-2.427l-.08-.08a2.666 2.666 0 0 1 .865-4.352 2.668 2.668 0 0 1 2.908.579l.08.08a2.197 2.197 0 0 0 2.427.44H12a2.2 2.2 0 0 0 1.334-2.013v-.227a2.668 2.668 0 0 1 5.334 0v.12a2.203 2.203 0 0 0 1.334 2.013 2.208 2.208 0 0 0 2.427-.44l.08-.08a2.672 2.672 0 0 1 1.886-.782 2.672 2.672 0 0 1 2.465 1.647 2.668 2.668 0 0 1-.579 2.907l-.08.08a2.197 2.197 0 0 0-.44 2.427v.107a2.2 2.2 0 0 0 2.013 1.334h.227a2.668 2.668 0 0 1 0 5.334h-.12a2.203 2.203 0 0 0-2.013 1.334z"/>
    </symbol>
    <symbol id="icon-trash" viewBox="0 0 32 32">
      <path stroke-linecap="round" stroke-linejoin="round" stroke-width="3" d="M12 4h8"/>
      <path stroke-linecap="round" stroke-linejoin="round" stroke-width="3.6" d="M4 8h24m-2.667 0-.935 14.026c-.14 2.104-.21 3.156-.665 3.954a4.007 4.007 0 0 1-1.731 1.62c-.826.4-1.881.4-3.99.4h-4.025c-2.109 0-3.163 0-3.99-.4a4.001 4.001 0 0 1-1.731-1.62c-.455-.798-.525-1.85-.665-3.954L6.666 8"/>
    </symbol>
    <symbol id="icon-upload" viewBox="0 0 21 20">
<path d="M18 12.5V15.8333C18 16.2754 17.8244 16.6993 17.5118 17.0118C17.1993 17.3244 16.7754 17.5 16.3333 17.5H4.66667C4.22464 17.5 3.80072 17.3244 3.48816 17.0118C3.17559 16.6993 3 16.2754 3 15.8333V12.5" stroke="#2F2F2F" stroke-width="1.8" stroke-linecap="round" stroke-linejoin="round"/>
<path d="M14.6668 6.66667L10.5002 2.5L6.3335 6.66667" stroke="#2F2F2F" stroke-width="1.8" stroke-linecap="round" stroke-linejoin="round"/>
<path d="M10.5 2.5V12.5" stroke="#2F2F2F" stroke-width="1.8" stroke-linecap="round" stroke-linejoin="round"/>
</symbol>
    <symbol id="icon-close" viewBox="0 0 32 32">
      <path stroke-linecap="round" stroke-linejoin="round" stroke-width="3.429" d="M24 8 8 24M8 8l16 16"/>
    </symbol>
    <symbol id="icon-chevron-up" viewBox="0 0 32 32">
    <path stroke-linejoin="round" stroke-linecap="round" stroke-miterlimit="4" stroke-width="3" d="M8 20l8-8 8 8"></path>
    </symbol>
    <symbol id="icon-chevron-down" viewBox="0 0 32 32">
    <path stroke-linejoin="round" stroke-linecap="round" stroke-miterlimit="4" stroke-width="3" d="M8 12l8 8 8-8"></path></symbol>
  </defs>
</svg>